<?xml version="1.0" encoding="UTF-8"?>
<svg version="1.1" xmlns="http://www.w3.org/2000/svg" width="225" height="225">
<path d="M0 0 C74.25 0 148.5 0 225 0 C225 74.25 225 148.5 225 225 C150.75 225 76.5 225 0 225 C0 150.75 0 76.5 0 0 Z " fill="#4FD1D9" transform="translate(0,0)"/>
<path d="M0 0 C74.25 0 148.5 0 225 0 C225 74.25 225 148.5 225 225 C150.75 225 76.5 225 0 225 C0 150.75 0 76.5 0 0 Z M43 33 C42.40703125 33.44601563 41.8140625 33.89203125 41.203125 34.3515625 C22.58682521 48.8013571 10.19946394 75.72435362 7.3125 98.625 C5.21849966 126.47074925 10.61838258 154.75149088 28.5625 176.9375 C30.03236303 178.63310991 31.51084082 180.32131146 33 182 C33.58523437 182.71671875 34.17046875 183.4334375 34.7734375 184.171875 C50.21824359 202.8796683 76.12041284 214.95764875 100 218 C129.57689086 219.55603614 158.39207608 213.05541638 181 193 C181.71929687 192.43410156 182.43859375 191.86820313 183.1796875 191.28515625 C202.91776566 175.23479732 214.81695781 149.14008194 217.77734375 124.33642578 C218.84584077 113.12423667 218.27248597 102.03162491 216 91 C215.81695312 90.04222656 215.63390625 89.08445312 215.4453125 88.09765625 C211.88988349 71.74707223 203.60987228 56.79492028 193 44 C192.38253906 43.2471875 191.76507813 42.494375 191.12890625 41.71875 C174.31410419 21.96051177 148.6525078 9.7604329 123 7 C92.72397766 5.0173058 66.30469738 13.57941885 43 33 Z " fill="#FEFEFE" transform="translate(0,0)"/>
<path d="M0 0 C6.4294638 5.48824332 9.88889969 11.32331112 11.89453125 19.6171875 C11.89453125 21.5971875 11.89453125 23.5771875 11.89453125 25.6171875 C4.96453125 25.6171875 -1.96546875 25.6171875 -9.10546875 25.6171875 C-10.09546875 22.6471875 -11.08546875 19.6771875 -12.10546875 16.6171875 C-16.89649425 11.56718765 -22.1654198 10.49926424 -28.91796875 10.2421875 C-34.5974091 10.33413361 -39.34731854 11.42730653 -44.10546875 14.6171875 C-46.12928375 17.65291 -46.44321128 18.57491237 -46.54296875 22.0546875 C-46.58292969 22.81652344 -46.62289062 23.57835938 -46.6640625 24.36328125 C-45.81930437 27.77185077 -44.00327351 28.74891831 -41.10546875 30.6171875 C-38.26621985 31.7764578 -38.26621985 31.7764578 -35.10546875 32.5546875 C-33.8834375 32.88339844 -32.66140625 33.21210937 -31.40234375 33.55078125 C-28.2338354 34.3519526 -25.05481771 35.10163074 -21.87109375 35.83984375 C-20.95972656 36.0519751 -20.04835937 36.26410645 -19.109375 36.48266602 C-17.32234299 36.89441213 -15.53334641 37.29775641 -13.7421875 37.69116211 C-4.66725875 39.75640114 4.63786892 42.31220143 10.89453125 49.6171875 C15.51512722 57.04113285 16.78043244 63.92109995 15.89453125 72.6171875 C13.21766297 82.48438807 8.40745584 88.97373864 -0.16796875 94.3671875 C-14.37939016 101.67798663 -31.15845788 101.01963251 -46.10546875 96.6171875 C-55.25989859 93.2323563 -63.44159968 87.32399632 -68.10546875 78.6171875 C-69.7533574 73.84698351 -70.10546875 70.79961423 -70.10546875 65.6171875 C-63.17546875 65.6171875 -56.24546875 65.6171875 -49.10546875 65.6171875 C-48.33203125 68.2159375 -48.33203125 68.2159375 -47.54296875 70.8671875 C-46.15481442 74.71054718 -45.21317692 77.17842326 -41.60546875 79.2421875 C-31.81066871 83.09014466 -21.00344354 82.96620858 -11.265625 78.87890625 C-8.84757897 77.64000156 -8.84757897 77.64000156 -6.85546875 74.8046875 C-5.93791139 70.90506872 -5.96473845 68.46715227 -7.10546875 64.6171875 C-10.86216889 60.90285616 -14.86203836 59.46331235 -19.85546875 58.1171875 C-20.59482666 57.90779541 -21.33418457 57.69840332 -22.09594727 57.48266602 C-27.37675919 56.0133246 -32.69780066 54.76413436 -38.04296875 53.5546875 C-47.841687 51.30658315 -57.63257046 48.92880748 -64.10546875 40.6171875 C-66.92485461 35.09476888 -67.65717193 29.81927661 -67.60546875 23.6796875 C-67.59974854 22.88844482 -67.59402832 22.09720215 -67.58813477 21.28198242 C-67.39557289 14.99357303 -66.24478761 10.50242422 -62.10546875 5.6171875 C-61.59757812 4.98683594 -61.0896875 4.35648438 -60.56640625 3.70703125 C-45.88548326 -12.67854868 -16.95781317 -12.64757123 0 0 Z " fill="#FCFEFE" transform="translate(140.10546875,66.3828125)"/>
</svg>
